<?xml version="1.0" encoding="UTF-8"?>
<svg id="Layer_1" xmlns="http://www.w3.org/2000/svg" version="1.1" viewBox="150 30 620 540">
  <!-- Generator: Adobe Illustrator 30.1.0, SVG Export Plug-In . SVG Version: 2.1.1 Build 136)  -->
  <defs>
    <style>
      .st0 {
        fill: #979aa1;
      }

      .st1 {
        fill: #fafafa;
      }

      .st2 {
        fill: #0184eb;
      }

      .st3 {
        fill: #8a8a8a;
      }

      

      .st5 {
        fill: #c4c5c8;
      }
    </style>
  </defs>
  <path d="M242.94,552.59c13.23-11,26.49-21.98,39.69-33.02,16.96-14.18,33.86-28.42,50.79-42.63.89-.75,1.81-1.47,3.18-2.58,13.45,28.77,26.74,57.2,40.34,86.29-7.26,0-13.92.05-20.59-.08-.66-.01-1.57-1.01-1.92-1.76-7.41-15.89-14.76-31.82-22.12-47.73-1.13-2.45-2.3-4.89-3.52-7.49-14.62,8.73-29.12,17.39-43.98,26.25-5.88,3.5-11.39,6.85-16.93,10.12-6.89,4.07-13.77,8.14-20.75,12.04-1.15.64-2.79.42-4.2.6h0Z"/>
  <path class="st3" d="M273.71,456.03c.42-.65.83-1.29,1.56-1.87.96-.61,1.8-1.19,2.21-2,1.48-2.87,3-5.75,4.16-8.76,1.38-3.58,2.95-6.04,7.52-4.49,1.85.63,4.1-.03,6.14.14,2.56.22,5.1.78,7.66,1.05,4.57.49,9.15,1.15,13.73,1.18,1.7.01,2.61.12,3.28,1.63,1.44,3.26,2.75,6.6,4.45,9.72,1.05,1.93,2.73,3.53,4.13,5.27.5.96.99,1.92,1.29,3.15-1.06,2.48.38,3.35,2.02,4.09,1.54,1.31.46,2.19-.52,3.06-4.23,3.73-8.46,7.45-13.18,11.61-5.69-11.94-11.33-23.76-17.35-36.4-1.39,2.85-2.43,4.92-3.43,7.02-5.56,11.76-11.11,23.53-16.68,35.28-1.98,4.18-2.6,4.41-6.59,2.34-3.83-1.99-7.61-4.11-11.59-6.27,3.4-7.67,6.76-15.26,10.47-23.11.55-.71.76-1.17.96-1.63,0,0,.02.23.1.14-.06-.44-.2-.8-.34-1.16M270.63,477.57c-1.04-.85-2.08-1.69-3.15-2.56-2.21,3.83-1.57,6.86,1.92,9.11.55.35,1.11.68,1.68.98,4.5,2.41,8.93.14,9.97-5.4-3.34-.62-6.68-1.23-10.43-2.13h0Z"/>
  <path class="st0" d="M234.23,542.49c4.87-10.27,9.72-20.56,14.65-30.8.53-1.11,1.36-2.37,2.39-2.9,7.81-3.97,15.71-7.77,24.45-12.05-2.83,6.06-5.31,11.38-7.81,16.7-2.76,5.87-5.52,11.73-8.32,17.58-.46.95-.94,2.02-1.71,2.68-10.42,8.95-20.9,17.84-31,26.43,2.24-5.39,4.72-11.34,7.29-17.5.1-.23.05-.15.05-.15h0Z"/>
  <path d="M388.71,512.61c.76-1.06,1.41-1.9,2.02-2.68-2.43-3.59-5.42-2.71-8.68-1.31-6.17,2.65-12.41,5.15-18.67,7.62-.81.32-1.85.04-2.79.04l-.17-1.42c8.49-3.41,16.98-6.82,25.51-10.25.69-2.08-.27-3.03-2.25-3.7-6.88-2.32-13.72-4.76-20.55-7.22-1.18-.43-2.25-1.18-3.59-1.91-2.14,1.81-4.43,3.76-6.72,5.7-.33-.16-.65-.32-.98-.48.4-.89.57-2.05,1.23-2.64,8.46-7.43,17-14.77,25.5-22.16,3.35-2.92,6.7-5.85,9.92-8.91.59-.56.99-1.86.79-2.64-1.28-4.93.06-8.5,3.83-9.64,3.98-1.2,8.11.85,9.17,4.56,1.21,4.22-1.03,7.74-6.01,9.25-.59,10.41-1.18,20.86-1.77,31.25,4.4,2.36,5.79,4.45,5.27,8.13-.59,4.19-3.79,5.14-6.59,5.42-6.69,11.22-13.11,21.98-19.55,32.77-1.13-1.31-1.3-2.64-.5-3.98,5.15-8.54,10.3-17.08,15.56-25.83M365.19,486.87c-1.55,1.3-3.1,2.59-4.61,3.86,4.92,1.6,9.67,3.18,14.45,4.68,2.38.75,3.72.29,2.54-2.29.88.82,2.24,1.62,2.9,2.81.97,1.76,5.34,3.82,6.91,2.89,1.64-.98,3.31-1.91,5.4-3.11-.36-10.27,1.79-20.94.51-31.65-.34-.18-.68-.35-1.01-.53-8.9,7.69-17.81,15.37-27.08,23.35h-.01Z"/>
  <path class="st3" d="M328.49,457.69c-1.34-1.53-3.02-3.12-4.07-5.05-1.7-3.12-3.01-6.46-4.45-9.72-.66-1.5-1.58-1.62-3.28-1.63-4.58-.03-9.16-.68-13.73-1.18-2.56-.28-5.1-.83-7.66-1.05-2.05-.18-4.3.48-6.14-.14-4.56-1.55-6.13.91-7.52,4.49-1.16,3.01-2.68,5.89-4.16,8.76-.41.8-1.26,1.38-2.04,1.92,5.23-12.08,10.61-24.02,15.98-35.96,2.95-6.56,5.91-13.11,9.17-20.33,4.18,8.91,8.03,17.1,11.85,25.3,5.34,11.45,10.66,22.91,16.04,34.59M298.5,431.92c-2.7,0-5.41-.15-8.09.07-1.27.11-3.56,1-3.53,1.42.14,2.36,2.22,1.7,3.74,1.77,5.05.23,10.11.29,15.14.7,3.45.28,6.87,1.02,10.32,1.56,0-2.97-.99-4.63-3.41-4.84-4.49-.39-9.01-.48-14.17-.69h0Z"/>
  <path d="M289.04,578.5c.74-1.33,1.49-2.66,2.51-4.26.67-.5,1.07-.73,1.47-.96h7.54c5.08-8.97,10.38-18.32,15.57-27.48-1.35-1.73-2.45-3.14-3.65-4.92-.21-.8-.32-1.22-.43-1.65.28-1.58.36-3.23.87-4.72,1.46-4.24,7.39-5.31,12.52-1.81,2.47-2.35,4.96-4.72,7.58-7.22,1.35,1.62,1.6,2.73-.21,3.88-1.27.8-2.43,1.82-3.54,2.85-3.82,3.52-3.08,7.82,1.63,10.02,3.93,1.84,7.86,3.67,11.68,5.72,1.16.62,1.95,1.95,2.91,2.96-.19.21-.37.42-.56.63-6.1-2.92-12.19-5.85-17.58-8.43-2.93.98-5.38,1.47-7.47,2.62-1.53.83-2.93,2.33-3.8,3.87-4.46,7.91-8.78,15.9-13,23.95-.61,1.16-.39,2.75-.65,5.03,5.28-2.14,9.49-3.75,13.63-5.55,10.21-4.45,20.41-8.94,30.55-13.55,1.81-.82,2.55-.46,3.05,1.64-9.04,3.95-18.1,7.96-27.2,11.88-5.77,2.49-11.61,4.81-17.38,7.29-.75.32-1.53,1.09-1.83,1.83-1.5,3.73-3.81,5.34-7.69,5.1-3.57-.22-5.61-2.11-6.58-6.48,0-1.04.04-1.64.08-2.24h-.02Z"/>
  <path class="st3" d="M257.4,444.88c-6.22,5.56-12.45,11.11-18.65,16.68-2.61,2.34-1.86,8.39,1.15,10.11,5.65,3.22,11.28,6.48,16.9,9.76.96.56,1.85,1.26,2.77,1.9-.15.31-.29.61-.44.92-.76-.25-1.59-.37-2.27-.76-5.96-3.34-11.93-6.66-17.8-10.13-1.81-1.07-3.27-1.91-5.11-.06-.69.69-1.92.83-3.19,1.33,0,4.2.04,8.51-.03,12.83-.02,1.12-.37,2.23-.74,3.52-.17.17-.14.18-.24-.07-.35-5.61-.59-10.96-.85-16.48-.82-.38-1.86-.86-2.97-1.38-4.45,4-8.88,7.96-13.29,11.94-4.48,4.04-8.93,8.11-13.19,11.97.67,1.68,1.69,2.99,1.56,4.18-.33,3.13,1.41,4.42,3.65,5.49-.78.31-1.35.49-1.93.67-2.49-1.67-3.71.59-5.46,1.91-.17.2-.09.18-.09.18-4.27.74-8.19.56-10.14-4.49,1.03-2.38,1.35-5.27,2.85-6.15,2.25-1.32,5.32-1.22,8.06-1.64.07.08.12.07.17.05-.07-.04-.14-.09-.24-.25-.03-.12,0-.36.22-.45,1.56-1.47,2.87-2.91,4.28-4.23,6.68-6.29,13.43-12.51,20.05-18.86.75-.72,1.29-2.13,1.2-3.16-.15-1.76-.88-3.48-1.39-5.33-5.13-2.02-10.43-4.13-15.76-6.19-.64-.25-1.41-.16-2.12-.42.42-.66.84-1.13,1.51-1.6,4.8,1.72,9.36,3.41,13.88,5.18,2.08.81,3.89,1.35,5.62-.88.7-.9,2.26-1.53,3.44-1.56,2.01-.05,2.5-1.11,2.88-2.71,2.07-8.72,4.19-17.42,6.47-26.23.4,0,.64.12.89.5-2.14,9.63-4.29,18.99-6.42,28.26,1.27.84,2.32,1.53,3.38,2.24,6.83-5.82,13.66-11.64,20.67-17.35.37.33.55.55.74.76h-.02Z"/>
  <path class="st3" d="M202.87,507.39c.45-.27,1.02-.45,1.96-.71,5.18,2.07,9.99,4.23,15.12,6.53.76-1.66,1.42-3.11,2.08-4.56,0,0-.04,0,.21.15,2.21.44,4.17.93,6.11.84.38-.02.89-2.31.91-3.56.06-3.11-.24-6.22-.18-9.33.04-1.86.5-3.72.77-5.58,0,0-.03,0-.04-.03.26,5.33.44,10.68.85,16.02.15,1.97.88,3.89,1.47,6.34,16.33-7.94,31.84-15.48,47.35-23.02.17.35.35.69.52,1.04-6.6,3.44-13.17,6.95-19.82,10.29-8.27,4.14-16.63,8.1-24.91,12.23-.71.35-1.49,1.25-1.61,1.99-.94,5.7-3.34,7.7-9,7.26-.54-.04-1.08-.05-1.82.18-.2.26-.16.26-.16.26.08-.25.31-.59.22-.74-1.45-2.6-2.95-5.17-5.14-8.98-3.9-1.72-9.33-4.13-14.9-6.62h0Z"/>
  <path d="M383.21,423.36c-.06,11.32-.08,22.37-.29,33.43-.02,1.14-.95,2.51-1.86,3.32-1.51,1.36-3.35,2.37-5.65,3.93v-6.62c.02-9.86.09-19.73.03-29.59-.01-2.19.37-3.64,2.79-4.26,1.52-.39,2.88-1.42,4.55-2.29.15.67.28,1.24.42,2.08h0Z"/>
  <path d="M369.02,456.66c-.04,3.47-.23,6.62-.08,9.75.13,2.72-.4,4.8-3.16,6.01-1.35.59-2.47,1.69-4.09,2.84v-34.06c1.99-.93,4.11-1.92,6.99-3.26.12,6.5.23,12.45.34,18.72Z"/>
  <path d="M355.01,477.23c-.11,3.61-1.17,4.76-6.85,7.58-.14-.88-.37-1.68-.37-2.48-.06-8.21-.03-16.43-.16-24.64-.03-1.8.58-2.76,2.23-3.39,1.6-.61,3.1-1.49,5.16-2.5v25.43h-.01Z"/>
  <path class="st3" d="M239.02,430.7c-.24-.11-.47-.22-1.02-.45-2.22-1.66-3.94-1.06-5.87.08-.47-.42-.65-.59-.84-.76,1.65-1.46,2.53-3.03,2.5-5.51-.08-5.07,5.01-7.66,9.83-5.52,1.33.59,3.07.93,4.46.63,6.1-1.33,12.14-2.94,18.48-4.31.33.52.39.9.44,1.28-6.7,2.01-13.4,4.01-19.99,5.99-.34,1.81-.67,3.58-1.13,5.75-.23.79-.34,1.17-.7,1.48-2.22.39-4.19.86-6.17,1.34h0Z"/>
  <path class="st3" d="M197.06,509.63c.12-.25.05-.22.03-.22.61.72,1.43,1.35,1.82,2.18,3.53,7.56,6.98,15.15,10.51,22.86,5.27.62,5.44.84,6.15,5.92.09.68.84,1.38,1.45,1.86,3.14,2.5,6.37,4.88,9.48,7.41.81.66,1.31,1.71,1.95,2.57l-.93.77c-3.96-2.94-7.88-5.92-11.91-8.76-.69-.49-1.85-.64-2.73-.5-2.32.36-4.61.73-6.27-1.41-1.57-2.03-1.44-4.12-.12-6.36.43-.72.32-2.07-.05-2.9-3.01-6.72-6.17-13.38-9.19-20.1-.4-.9-.24-2.05-.22-3.33h.03Z"/>
  <path d="M242.8,552.67c1.55-.26,3.18-.04,4.33-.68,6.98-3.9,13.86-7.98,20.75-12.04,5.55-3.27,11.05-6.62,16.71-10.07-.4.45-.83,1.19-1.47,1.6-19.25,12.23-38.52,24.43-57.79,36.62-.61.38-1.26.69-2.03.84,6.45-5.39,12.9-10.79,19.49-16.27h.01Z"/>
  <path class="st3" d="M205.6,456.67c-.42.47-.84.94-1.37,1.79-.84.89-1.56,1.4-2.48,1.87-.75.24-1.31.52-2.09.76-.51.02-.8.07-1.2-.07-.65-.3-1.2-.41-1.74-.52-3.41-2.02-4.57-4.53-3.54-7.68,1.14-3.47,3.57-4.55,8.99-3.57.98.73,1.69,1.15,2.38,1.82.34,2.03.69,3.82,1.05,5.6h0Z"/>
  <path class="st3" d="M257.64,444.8c-.42-.14-.61-.36-.97-.91-.38-2.62-.57-4.89-.6-7.28.36-.45.55-.79.74-1.13,1.04-.25,2.17-.89,3.1-.68,1.87.42,4.41.82,5.23,2.13.93,1.5.84,4.17.19,5.98-.83,2.29-3.28,2.46-5.56,2.08-.63-.1-1.26-.18-2.12-.2h-.01Z"/>
  <path d="M288.81,578.38c.19.71.15,1.31.09,2.05-8.07-2.88-16.13-5.9-24.18-8.93-1.1-.41-2.18-.88-3.37-1.62.27-.59.64-.89,1.01-1.19,3.24,1.04,6.53,1.95,9.72,3.14,5.53,2.06,11,4.28,16.73,6.54h0Z"/>
  <path class="st3" d="M267.14,417.23c-.21-.55-.26-.98-.34-1.63.09-2.75.43-5.14,2.47-6.23,2.01-1.07,4.14-.84,5.1,1.73.66,1.74.68,4.57.06,6.34-.94,2.68-3.12,2.72-5.08,1.75-.75-.37-1.36-1.21-2.21-1.97h0Z"/>
  <path d="M311.78,539.24c.37.42.48.84.61,1.4-9.05,3-18.11,5.86-27.17,8.72-.19-.23-.38-.45-.57-.68.47-.57.83-1.46,1.42-1.65,8.47-2.65,16.96-5.2,25.71-7.79h0Z"/>
  <path d="M292.98,573.04c-.36.47-.76.7-1.31.98-4.39-7.08-8.65-14.21-12.81-21.4-.15-.25.57-1,1.12-1.91,4.46,7.59,8.71,14.84,13,22.32h0Z"/>
  <path class="st0" d="M196.9,460.76c.37-.15.92-.04,1.6.56-1.19,11.62-2.53,22.76-3.99,34.05-.89.07-1.65-.01-2.41-.1.51-.48,1.41-.91,1.47-1.44,1.22-10.93,2.35-21.86,3.32-33.06h0Z"/>
  <path class="st3" d="M266.05,494.67c-3.86,2.23-7.72,4.46-11.59,6.69l-.62-.48c.56-1.19,1.12-2.38,2.08-3.78.89-1.37,1.38-2.54,1.86-3.71.47-1.37.95-2.74,1.76-4.06,1.05.21,1.86.21,2.46.57,1.86,1.12,4.74,1.45,4.04,4.76h0Z"/>
  <path class="st3" d="M213.85,442.24c5.01-3.71,10.01-7.43,15.48-11.04.69.36.93.61,1.08,1.07-4.98,3.74-9.89,7.28-15.01,10.71-.66-.32-1.11-.53-1.55-.74Z"/>
  <path class="st3" d="M299.97,481.36c-4.19,2.11-8.37,4.24-12.58,6.31-1.12.56-2.32.97-3.48,1.44-.14-.27-.27-.55-.41-.82,2.95-1.57,5.85-3.28,8.88-4.68,2.27-1.05,4.72-1.71,7.33-2.5.25.04.26.24.26.24h0Z"/>
  <path class="st3" d="M283.36,498.75c-1.23-.97-2.27-1.81-3.32-2.65l.38-.61c4.81,2.78,9.63,5.57,14.74,8.53-3.41,1.09-3.32.97-5.54-.87-1.9-1.57-4.04-2.85-6.26-4.4h0Z"/>
  <path class="st3" d="M266.3,494.62c.45-3.26-2.44-3.59-4.29-4.71-.59-.36-1.4-.36-2.29-.72.19-.76.56-1.33,1.21-1.71,1.21.6,2.13,1.01,3.04,1.43.11-.36.22-.72.33-1.08-1.09-.19-2.18-.38-3.26-.57-.12-.4-.25-.81-.12-1.64.36-.58.48-.73.59-.88l9.48,5.08c-.16.33-.31.67-.47,1-1-.33-2.01-.65-3.3-1.19-.41-.37-.54-.53-.66-.69-.11.28-.21.56-.32.85.95.88,1.91,1.76,3.18,2.93-.91.59-1.89,1.22-3.12,1.9M265.23,488.25s.09-.06,0,0Z"/>
  <path class="st3" d="M233.89,542.42c.35.08.39,0,.4-.02-.91-1.2-2.31-2.26-2.67-3.59-.88-3.26-1.29-6.65-1.88-9.99.43-.07.87-.14,1.3-.21.65,3.75,1.29,7.51,1.95,11.26.15.83.37,1.65.9,2.55h0Z"/>
  <path class="st3" d="M299.98,481.74c0-.38-.02-.58-.01-.58.23-4.81.46-9.6.69-14.4h.08c.16,7.23.32,14.46.27,22-.44.27-.67.23-.9.19-.04-2.28-.08-4.55-.13-7.2h0Z"/>
  <path class="st0" d="M213.64,442.27c.65.18,1.09.39,1.65.9-3.5,2.75-7.11,5.2-10.72,7.65-.71-.42-1.42-.84-2.19-1.46,1.14-.69,2.46-1.02,3.53-1.72,2.57-1.68,5.02-3.54,7.74-5.37h0Z"/>
  <path d="M262.18,568.56c-.19.44-.56.74-1.02,1.2-.2.18-.32.19-.69.01-.46-.28-.67-.37-.87-.45-2.59-1-5.18-2-7.84-3.02,1.75-1.96,6.59-.85,10.42,2.26h0Z"/>
  <path class="st3" d="M191.88,495.28c.98.07,1.74.15,2.86.08,1.29.29,2.21.74,3.14,1.19,0,0-.03.24,0,.36.04.12.04.11.04.11-2.72.51-5.79.41-8.04,1.73-1.5.88-1.81,3.76-2.84,5.92-1.79-4.15-.39-6.93,4.84-9.38h0Z"/>
  <path class="st0" d="M256.62,435.3c0,.52-.2.86-.79,1.25-3.73-2.34-7.06-4.73-10.39-7.11.11-.39.22-.77.48-1.29,3.61,2.24,7.07,4.6,10.71,7.15h-.01Z"/>
  <path class="st0" d="M268.31,427.41c1-1.5,1.88-2.8,2.75-4.11.35.21.7.42,1.05.63l-5.21,9.11c-.43-.23-.86-.46-1.29-.69.86-1.58,1.72-3.16,2.7-4.95h0Z"/>
  <path class="st3" d="M222.64,523.71c-2.14,3.04-4.28,6.11-6.42,9.17-.45-.36-.9-.73-1.35-1.09,2.46-2.64,4.92-5.29,7.59-7.99.21-.06.17-.06.17-.08h.01Z"/>
  <path class="st3" d="M300.05,489.22c.28-.24.51-.2.91-.18.17,3.14.17,6.3.17,9.46h-1.13c0-3,0-6,.05-9.28Z"/>
  <path class="st3" d="M331.82,464.93c-1.61-.52-3.04-1.39-2-3.64.78,1.11,1.37,2.27,2,3.64Z"/>
  <path class="st5" d="M257.57,493.49c-.27,1.07-.75,2.23-1.46,3.47.26-1.08.76-2.22,1.46-3.47Z"/>
  <path class="st1" d="M230.49,432.07c-.23-.26-.47-.51-.95-.88.28-.57.81-1.03,1.54-1.55.39.1.58.26.96.88-.39.82-.97,1.19-1.55,1.56h0Z"/>
  <path class="st3" d="M260.98,485.4c-.73-.16-1.28-.53-1.82-.9.09-.21.18-.42.27-.63.59.15,1.18.31,1.92.67.04.35-.07.5-.37.87h0Z"/>
  <path class="st1" d="M273.76,457.12c-.01.39-.21.85-.6,1.41.01-.38.21-.86.6-1.41Z"/>
  <path class="st3" d="M272.09,491.66c-.54-.29-1.08-.58-1.62-.88.37-.16.73-.31,1.34-.14.25.56.27.79.28,1.01h0Z"/>
  <path class="st0" d="M272.27,491.73c-.2-.3-.21-.52-.2-.92.38.12.74.4,1.1.69-.24.1-.47.2-.89.23h0Z"/>
  <path class="st1" d="M273.69,456.24c.16.15.3.51.25.95-.21-.2-.24-.47-.25-.95Z"/>
  <path class="st3" d="M266.03,489.8c-.14-.47.05-.9.24-1.34.21.25.43.5.68.99-.17.3-.38.33-.9.34h-.02Z"/>
  <path class="st5" d="M280.92,549.43s-.01,0,0,0Z"/>
  <path class="st2" d="M282.22,489.54s-.01,0,0,0Z"/>
  <path class="st5" d="M259.68,569.49c.13-.08.34,0,.62.24-.13.07-.34,0-.62-.24Z"/>
  <path class="st3" d="M270.84,477.71c3.55.76,6.89,1.37,10.22,1.99-1.04,5.54-5.47,7.81-9.97,5.4-.57-.31-1.14-.63-1.68-.98-3.49-2.25-4.13-5.28-1.92-9.11,1.07.87,2.11,1.72,3.35,2.7Z"/>
  <path class="st3" d="M298.83,431.92c4.83.21,9.35.31,13.85.69,2.41.21,3.41,1.86,3.41,4.84-3.45-.54-6.86-1.28-10.32-1.56-5.03-.41-10.09-.47-15.14-.7-1.52-.07-3.6.59-3.74-1.77-.03-.42,2.26-1.32,3.53-1.42,2.68-.22,5.39-.07,8.42-.07h-.01Z"/>
  <path class="st5" d="M197.91,497.03c.07.05.14.09.21.13-.05.01-.1.03-.17-.05-.02-.06-.03-.09-.04-.08h0Z"/>
  <path class="st0" d="M222.02,508.64c-1.14-1.71-2.54-3.3-3.41-5.14-2.07-4.4-3.92-8.91-5.78-13.41-.33-.8-.28-1.75-.4-2.63.41-.11.83-.23,1.24-.34,2.78,7.04,5.55,14.08,8.32,21.32,0,.2.02.21.03.21h0Z"/>
  <path class="st0" d="M201.75,460.33c2.59,7.77,7.31,14.67,9.15,22.62-.33.13-.66.27-1,.4-3.3-7.26-6.6-14.52-9.96-22.01.5-.5,1.06-.77,1.81-1.02h0Z"/>
  <path class="st3" d="M261.05,487.26c1.08.19,2.17.38,3.25.57-.11.36-.22.72-.33,1.08-.92-.41-1.83-.83-2.83-1.45-.08-.21-.08-.19-.09-.2h0Z"/>
  <path class="st3" d="M265.27,488.22s-.04.03,0,0Z"/>
  
</svg>
